<svg width="19" height="19" viewBox="0 0 19 19" fill="none" xmlns="http://www.w3.org/2000/svg">
<path fill-rule="evenodd" clip-rule="evenodd" d="M0.5 2.28906C0.5 1.18406 1.395 0.289062 2.5 0.289062H16.5C17.605 0.289062 18.5 1.18406 18.5 2.28906V16.2891C18.5 17.3941 17.605 18.2891 16.5 18.2891H12.914V11.3241H15.279L15.63 8.59906H12.93V6.86406C12.93 6.07606 13.15 5.54206 14.28 5.54206H15.708V3.11206C15.013 3.04106 14.315 3.00506 13.616 3.00706C11.542 3.00706 10.121 4.27406 10.121 6.59806V8.60306H7.778V11.3281H10.121V18.2891H2.5C1.395 18.2891 0.5 17.3941 0.5 16.2891V2.28906Z" fill="#251F24"/>
</svg>
