<svg width="19" height="19" viewBox="0 0 19 19" fill="none" xmlns="http://www.w3.org/2000/svg">
<path fill-rule="evenodd" clip-rule="evenodd" d="M0.5 5.28906C0.5 2.52806 2.739 0.289062 5.5 0.289062H13.5C16.261 0.289062 18.5 2.52806 18.5 5.28906V13.2891C18.5 16.0501 16.261 18.2891 13.5 18.2891H5.5C2.739 18.2891 0.5 16.0501 0.5 13.2891V5.28906ZM16.5 3.28906C16.5 2.73706 16.052 2.28906 15.5 2.28906C14.948 2.28906 14.5 2.73706 14.5 3.28906C14.5 3.84106 14.948 4.28906 15.5 4.28906C16.052 4.28906 16.5 3.84106 16.5 3.28906ZM14.5 9.28906C14.5 6.52806 12.261 4.28906 9.5 4.28906C6.739 4.28906 4.5 6.52806 4.5 9.28906C4.5 12.0501 6.739 14.2891 9.5 14.2891C12.261 14.2891 14.5 12.0501 14.5 9.28906ZM7.37868 7.16774C7.94129 6.60513 8.70435 6.28906 9.5 6.28906C10.2956 6.28906 11.0587 6.60513 11.6213 7.16774C12.1839 7.73035 12.5 8.49341 12.5 9.28906C12.5 10.0847 12.1839 10.8478 11.6213 11.4104C11.0587 11.973 10.2956 12.2891 9.5 12.2891C8.70435 12.2891 7.94129 11.973 7.37868 11.4104C6.81607 10.8478 6.5 10.0847 6.5 9.28906C6.5 8.49341 6.81607 7.73035 7.37868 7.16774Z" fill="#251F24"/>
</svg>
