<svg width="19" height="19" viewBox="0 0 19 19" fill="none" xmlns="http://www.w3.org/2000/svg">
<path fill-rule="evenodd" clip-rule="evenodd" d="M0.5 4.28906C0.5 2.08006 2.291 0.289062 4.5 0.289062H14.5C16.709 0.289062 18.5 2.08006 18.5 4.28906V14.2891C18.5 16.4981 16.709 18.2891 14.5 18.2891H4.5C2.291 18.2891 0.5 16.4981 0.5 14.2891V4.28906ZM7.521 14.1751C12.064 14.1751 14.55 10.4031 14.55 7.14606V6.80306C14.979 6.46006 15.407 6.03206 15.752 5.51606C15.238 5.77406 14.809 5.85906 14.295 5.94506C14.809 5.60306 15.238 5.17406 15.409 4.57406C14.98 4.83106 14.466 5.08806 13.866 5.17406C13.437 4.66006 12.752 4.40306 12.066 4.40306C10.694 4.40306 9.58 5.51806 9.58 6.88906C9.58 7.03061 9.60609 7.14637 9.62953 7.25038C9.64864 7.33522 9.666 7.41224 9.666 7.48906C7.609 7.40406 5.809 6.37506 4.609 4.91806C4.352 5.26106 4.266 5.68906 4.266 6.11806C4.266 6.97506 4.694 7.66106 5.38 8.26106C4.952 8.17506 4.609 8.08906 4.266 7.91806C4.266 9.11806 5.123 10.0611 6.237 10.3181C5.98 10.4041 5.808 10.4041 5.55101 10.4041H5.551C5.51532 10.4041 5.46483 10.3893 5.40575 10.3719C5.32244 10.3475 5.22205 10.3181 5.122 10.3181C5.465 11.2611 6.322 12.0321 7.436 12.0321C6.579 12.6321 5.464 13.0611 4.35 13.0611H3.75C4.864 13.7461 6.15 14.1751 7.521 14.1751Z" fill="#251F24"/>
</svg>
