<svg width="19" height="18" viewBox="0 0 19 18" fill="none" xmlns="http://www.w3.org/2000/svg">
<path fill-rule="evenodd" clip-rule="evenodd" d="M0.5 5C0.5 2.239 2.739 0 5.5 0H13.5C16.261 0 18.5 2.239 18.5 5V13C18.5 15.761 16.261 18 13.5 18H5.5C2.739 18 0.5 15.761 0.5 13V5ZM16.5 3C16.5 2.448 16.052 2 15.5 2C14.948 2 14.5 2.448 14.5 3C14.5 3.552 14.948 4 15.5 4C16.052 4 16.5 3.552 16.5 3ZM14.5 9C14.5 6.239 12.261 4 9.5 4C6.739 4 4.5 6.239 4.5 9C4.5 11.761 6.739 14 9.5 14C12.261 14 14.5 11.761 14.5 9ZM7.37868 6.87868C7.94129 6.31607 8.70435 6 9.5 6C10.2956 6 11.0587 6.31607 11.6213 6.87868C12.1839 7.44129 12.5 8.20435 12.5 9C12.5 9.79565 12.1839 10.5587 11.6213 11.1213C11.0587 11.6839 10.2956 12 9.5 12C8.70435 12 7.94129 11.6839 7.37868 11.1213C6.81607 10.5587 6.5 9.79565 6.5 9C6.5 8.20435 6.81607 7.44129 7.37868 6.87868Z" fill="white"/>
</svg>
