<svg width="19" height="18" viewBox="0 0 19 18" fill="none" xmlns="http://www.w3.org/2000/svg">
<path fill-rule="evenodd" clip-rule="evenodd" d="M0.5 4C0.5 1.791 2.291 0 4.5 0H14.5C16.709 0 18.5 1.791 18.5 4V14C18.5 16.209 16.709 18 14.5 18H4.5C2.291 18 0.5 16.209 0.5 14V4ZM7.521 13.886C12.064 13.886 14.55 10.114 14.55 6.857V6.514C14.979 6.171 15.407 5.743 15.752 5.227C15.238 5.485 14.809 5.57 14.295 5.656C14.809 5.314 15.238 4.885 15.409 4.285C14.98 4.542 14.466 4.799 13.866 4.885C13.437 4.371 12.752 4.114 12.066 4.114C10.694 4.114 9.58 5.229 9.58 6.6C9.58 6.74154 9.60609 6.8573 9.62953 6.96131C9.64864 7.04615 9.666 7.12318 9.666 7.2C7.609 7.115 5.809 6.086 4.609 4.629C4.352 4.972 4.266 5.4 4.266 5.829C4.266 6.686 4.694 7.372 5.38 7.972C4.952 7.886 4.609 7.8 4.266 7.629C4.266 8.829 5.123 9.772 6.237 10.029C5.98 10.115 5.808 10.115 5.55101 10.115H5.551C5.51532 10.115 5.46483 10.1002 5.40575 10.0829C5.32244 10.0584 5.22205 10.029 5.122 10.029C5.465 10.972 6.322 11.743 7.436 11.743C6.579 12.343 5.464 12.772 4.35 12.772H3.75C4.864 13.457 6.15 13.886 7.521 13.886Z" fill="white"/>
</svg>
